<svg xmlns="http://www.w3.org/2000/svg" width="1184" height="290" viewBox="0 0 1184 290" version="1.1">
	<path d="M 584.638 5.735 C 580.922 6.119, 580.800 6.249, 581.388 9.192 C 581.725 10.874, 582 13.107, 582 14.155 C 582 15.943, 582.781 16.043, 594.750 15.780 L 607.500 15.500 607.799 10.889 L 608.098 6.278 604.299 5.650 C 600.369 5, 591.373 5.039, 584.638 5.735 M 549.500 12.917 C 545.100 14.461, 539.850 16.527, 537.834 17.507 L 534.167 19.291 536.283 23.645 C 537.446 26.040, 538.871 27.998, 539.449 27.997 C 540.027 27.995, 543.673 26.700, 547.551 25.120 C 551.429 23.539, 556.036 21.931, 557.789 21.546 C 559.543 21.161, 561.220 20.454, 561.516 19.974 C 562.376 18.583, 559.879 9.994, 558.631 10.055 C 558.009 10.085, 553.900 11.373, 549.500 12.917 M 628.250 14.749 C 627.653 17.360, 627.239 19.531, 627.332 19.571 C 627.424 19.612, 632 21.243, 637.500 23.196 C 643 25.148, 648.273 27.070, 649.217 27.467 C 650.564 28.033, 651.414 27.202, 653.156 23.616 C 654.378 21.101, 655.139 18.806, 654.848 18.514 C 653.802 17.469, 633.088 10, 631.233 10 C 629.790 10, 629.077 11.136, 628.250 14.749 M 671.551 33.344 C 670.148 35.184, 669 37.137, 669 37.684 C 669 38.231, 671.587 40.752, 674.750 43.284 C 677.913 45.817, 682.222 49.336, 684.326 51.103 L 688.151 54.315 691.826 50.587 L 695.500 46.860 691 42.863 C 685.494 37.974, 675.345 30, 674.627 30 C 674.338 30, 672.954 31.505, 671.551 33.344 M 505.500 37.827 C 493.736 47.865, 493.961 47.428, 498.315 51.781 L 501.975 55.441 506.237 51.408 C 511.840 46.107, 517.452 41.406, 519.638 40.182 C 521.267 39.271, 521.196 38.895, 518.684 35.099 C 517.192 32.845, 515.416 31, 514.736 31 C 514.056 31, 509.900 34.072, 505.500 37.827 M 592.780 46.185 C 591.413 48.558, 588.165 54.441, 585.562 59.258 C 581.236 67.264, 581.030 67.941, 583.165 67.154 C 584.449 66.680, 586.737 65.993, 588.250 65.627 L 591 64.962 591 141.468 L 591 217.973 587.750 219.354 C 572.727 225.737, 571.611 247.122, 585.907 254.672 C 602.467 263.418, 620.821 246.412, 613.120 229.459 C 611.084 224.975, 606.142 220.325, 602.423 219.391 L 600 218.783 600 141.785 C 600 68.861, 600.093 64.822, 601.750 65.463 C 602.712 65.835, 604.813 66.405, 606.417 66.729 L 609.335 67.317 604.748 58.903 C 602.226 54.276, 599.061 48.550, 597.714 46.180 L 595.266 41.870 592.780 46.185 M 705.203 66.429 C 703.390 67.711, 701.634 69.032, 701.302 69.365 C 700.969 69.698, 702.293 72.374, 704.244 75.313 C 706.195 78.251, 708.971 82.983, 710.413 85.828 C 711.854 88.673, 713.494 91, 714.057 91 C 714.619 91, 716.864 90.090, 719.045 88.977 L 723.010 86.954 720.362 81.727 C 716.874 74.843, 709.996 63.987, 709.160 64.049 C 708.797 64.076, 707.016 65.147, 705.203 66.429 M 477.339 69.250 C 475.862 71.588, 472.905 76.738, 470.769 80.695 L 466.886 87.890 469.693 89.318 C 476.240 92.650, 476.696 92.534, 479.593 86.803 C 481.067 83.887, 483.787 79.129, 485.637 76.231 C 487.487 73.332, 489 70.806, 489 70.617 C 489 70.090, 481.487 65, 480.709 65 C 480.333 65, 478.816 66.912, 477.339 69.250 M 505 86 C 505 87.704, 505.667 88, 509.500 88 L 514 88 514 143 L 514 198 509.430 198 C 505.264 198, 504.889 198.198, 505.180 200.250 C 505.494 202.457, 505.792 202.505, 520.750 202.776 L 536 203.052 536 200.526 C 536 198.198, 535.647 198, 531.486 198 L 526.972 198 527.236 166.750 L 527.500 135.500 544.500 135.500 L 561.500 135.500 561.764 166.750 L 562.028 198 557.445 198 C 553.263 198, 552.889 198.197, 553.180 200.250 C 553.496 202.473, 553.687 202.500, 569 202.500 C 584.313 202.500, 584.504 202.473, 584.820 200.250 C 585.111 198.198, 584.736 198, 580.570 198 L 576 198 576 143.057 L 576 88.115 580.241 87.807 C 583.335 87.583, 584.573 87.027, 584.815 85.750 C 585.120 84.142, 583.838 84, 569 84 C 554.162 84, 552.880 84.142, 553.185 85.750 C 553.427 87.027, 554.665 87.583, 557.759 87.807 L 562 88.115 562 108.557 L 562 129 544.500 129 L 527 129 527 108.500 L 527 88 531.500 88 C 535.333 88, 536 87.704, 536 86 C 536 84.086, 535.333 84, 520.500 84 C 505.667 84, 505 84.086, 505 86 M 606 86 C 606 87.704, 606.667 88, 610.500 88 L 615 88 615 143 L 615 198 610.430 198 C 606.264 198, 605.889 198.198, 606.180 200.250 C 606.498 202.484, 606.639 202.502, 626 202.791 C 637.035 202.955, 648.273 202.606, 651.889 201.987 C 664.047 199.905, 673.888 193, 678.720 183.161 C 681.168 178.177, 681.500 176.364, 681.500 168 C 681.500 155.392, 679.273 148.554, 672.895 141.576 C 670.275 138.709, 666.341 135.556, 664.154 134.570 L 660.178 132.776 665.885 127.138 C 672.193 120.907, 674 116.652, 674 108.035 C 674 101.332, 671.875 96.941, 666.227 91.969 C 658.552 85.213, 652.640 84, 627.395 84 C 606.667 84, 606 84.062, 606 86 M 364.780 87.030 C 358.994 88.005, 350.540 91.800, 346.454 95.257 C 335.424 104.589, 334.057 124.756, 343.773 134.828 C 348.926 140.170, 354.740 143.317, 369.098 148.535 C 389.662 156.010, 393.322 159.587, 392.786 171.687 C 392.516 177.781, 392.007 179.530, 389.439 183.187 C 384.940 189.595, 379.291 192.334, 370.584 192.329 C 358.707 192.322, 349.466 186.871, 340.279 174.454 L 335.500 167.995 335.226 185.641 C 335.076 195.346, 335.147 203.480, 335.383 203.717 C 335.620 203.954, 337.184 203.439, 338.857 202.574 C 342.789 200.541, 345.466 200.604, 357 203 C 377.143 207.185, 391.647 204, 401.012 193.334 C 406.904 186.623, 409.333 179.781, 409.333 169.897 C 409.333 162.458, 408.939 160.396, 406.606 155.627 C 402.023 146.259, 395.612 141.744, 377.022 134.792 C 359.639 128.291, 354.789 124.629, 353.506 117.038 C 353.023 114.177, 353.389 111.908, 354.878 108.542 C 356.578 104.700, 357.774 103.547, 362.205 101.485 C 370.181 97.771, 379.654 97.987, 387.821 102.068 C 394.081 105.197, 399.657 110.667, 403.041 117 L 404.912 120.500 404.956 103.844 L 405 87.187 401.563 88.242 C 398.971 89.037, 395.467 88.890, 387.313 87.643 C 375.753 85.874, 372.214 85.778, 364.780 87.030 M 246.052 106.731 L 246.104 126.500 248.418 120.272 C 251.598 111.713, 256.467 105.549, 262.446 102.512 C 268.669 99.352, 275.151 99.151, 278.030 102.030 C 280.017 104.017, 280.053 104.984, 279.780 148.854 L 279.500 193.649 276.750 197.803 C 275.238 200.088, 274 202.192, 274 202.479 C 274 202.765, 280.300 203, 288 203 C 295.700 203, 302 202.620, 302 202.155 C 302 201.690, 301.117 200.511, 300.038 199.534 C 295.755 195.658, 295.500 192.719, 295.500 147.162 L 295.500 103.823 298 101.798 C 300.062 100.128, 301.439 99.870, 305.859 100.325 C 315.067 101.275, 322.912 108.353, 326.759 119.183 C 327.700 121.832, 328.814 124, 329.235 124 C 329.656 124, 330 115.666, 330 105.481 L 330 86.962 327.250 87.731 C 323.663 88.734, 252.337 88.734, 248.750 87.731 L 246 86.962 246.052 106.731 M 783.566 89.838 C 788.322 94.596, 788.500 96.548, 788.500 144 C 788.500 168.475, 788.140 190.197, 787.701 192.271 C 787.261 194.346, 785.628 197.496, 784.072 199.271 L 781.242 202.500 812.371 202.489 C 845.270 202.477, 849.415 202.108, 857.678 198.460 C 869.487 193.246, 875.951 183.572, 876.781 169.873 C 877.718 154.393, 872.003 145.497, 858.540 141.483 L 854.580 140.303 859.540 137.850 C 873.831 130.784, 876.352 107.047, 863.924 96.589 C 854.409 88.583, 849.140 87.662, 812.365 87.574 L 781.230 87.500 783.566 89.838 M 885.596 90.295 C 889.839 95.340, 890.073 98.512, 889.779 146.885 L 889.500 192.839 886.271 197.420 L 883.041 202 898.500 202 L 913.959 202 910.729 197.422 L 907.500 192.843 907.195 171.422 L 906.890 150 920.263 150 C 935.642 150, 941.803 151.384, 946.803 155.960 C 951.989 160.708, 953.984 166.474, 955.036 179.765 C 956.833 202.471, 956.478 202, 971.811 202 L 982.178 202 979.437 198.750 C 975.294 193.837, 974.072 190.022, 972.455 176.958 C 970.712 162.885, 968.225 155.555, 963.752 151.310 C 960.158 147.899, 955.073 145.053, 952.300 144.901 C 951.310 144.847, 952.361 144.215, 954.635 143.498 C 963.937 140.564, 970.048 135.160, 973.006 127.253 C 978.001 113.905, 973.221 100.248, 961.281 93.749 C 951.036 88.173, 947.237 87.679, 913.873 87.586 L 883.245 87.500 885.596 90.295 M 628 108.500 L 628 129 635.532 129 C 646.600 129, 652.375 126.174, 655.964 119 C 659.834 111.265, 659.056 100.597, 654.202 94.829 C 650.182 90.050, 644.752 88.047, 635.750 88.022 L 628 88 628 108.500 M 983.249 90.750 C 988.318 96.063, 988.407 96.831, 988.971 140 L 989.500 180.500 991.988 185.371 C 995.239 191.737, 1002.674 198.327, 1009.798 201.158 C 1014.653 203.087, 1017.356 203.423, 1028 203.423 C 1043.951 203.423, 1049.753 201.426, 1058.032 193.087 C 1066.873 184.182, 1067 183.444, 1067 140.934 C 1067 101.440, 1067.489 96.791, 1072.203 91.421 L 1075.207 88 1059.604 88 C 1051.022 88, 1044 88.380, 1044 88.845 C 1044 89.310, 1044.884 90.490, 1045.964 91.467 C 1050.812 95.855, 1051.113 98.841, 1050.796 139.514 C 1050.525 174.276, 1050.342 177.806, 1048.636 181.100 C 1044.860 188.394, 1034.790 192.079, 1022.744 190.574 C 1015.626 189.684, 1010.150 186.406, 1007.588 181.500 C 1005.596 177.685, 1005.486 175.769, 1005.197 140 C 1004.874 100.054, 1005.185 96.620, 1009.587 91.497 C 1010.914 89.952, 1012 88.534, 1012 88.344 C 1012 88.155, 1004.941 88, 996.313 88 L 980.626 88 983.249 90.750 M 1084.882 91.518 C 1086.581 93.453, 1088.315 96.266, 1088.736 97.768 C 1089.156 99.271, 1089.500 120.975, 1089.500 146 C 1089.500 186.772, 1089.325 191.819, 1087.816 194.573 C 1086.890 196.263, 1085.427 198.230, 1084.566 198.945 C 1083.705 199.660, 1083 200.640, 1083 201.122 C 1083 201.605, 1090.059 202, 1098.687 202 L 1114.374 202 1111.809 199.250 C 1107.171 194.277, 1106.606 192.139, 1106.191 178 L 1105.795 164.500 1117.615 151.687 C 1128.400 139.994, 1129.549 139.031, 1130.754 140.678 C 1134.608 145.949, 1155.160 186.539, 1156.153 190.841 C 1157.148 195.152, 1157.077 196.234, 1155.657 198.401 C 1154.746 199.792, 1154 201.170, 1154 201.465 C 1154 201.759, 1160.750 202, 1169 202 C 1177.250 202, 1184 201.725, 1184 201.389 C 1184 201.053, 1182.283 198.690, 1180.185 196.139 C 1178.087 193.587, 1175.406 190.107, 1174.227 188.405 C 1171.919 185.071, 1141 128.239, 1141 127.330 C 1141 126.510, 1166.554 99.285, 1172.946 93.295 L 1178.500 88.090 1162.643 88.045 C 1147.924 88.003, 1146.838 88.126, 1147.506 89.750 C 1150.342 96.638, 1152.032 94.229, 1117.173 133 C 1111.980 138.775, 1107.305 143.662, 1106.783 143.861 C 1106.195 144.085, 1105.961 135.516, 1106.167 121.361 C 1106.521 97.086, 1106.673 96.256, 1111.809 90.750 L 1114.374 88 1098.083 88 L 1081.793 88 1084.882 91.518 M 6.701 91.250 C 11.547 96.571, 11.483 95.918, 11.798 143.216 C 12.113 190.629, 11.882 193.610, 7.474 198.849 C 6.113 200.466, 5 202.061, 5 202.394 C 5 202.727, 11.506 203, 19.459 203 L 33.917 203 30.709 197.842 L 27.500 192.684 27.196 171.491 L 26.892 150.298 39.265 149.611 C 46.071 149.233, 57.120 149.233, 63.819 149.612 L 76 150.300 76 171.190 C 76 190.056, 75.808 192.457, 74.014 195.972 C 72.922 198.113, 71.572 200.146, 71.014 200.491 C 67.972 202.372, 71.224 203, 84 203 C 91.700 203, 98 202.795, 98 202.544 C 98 202.294, 96.887 200.449, 95.526 198.444 C 94.166 196.439, 92.795 193.382, 92.480 191.649 C 92.164 189.917, 92.040 167.992, 92.203 142.926 L 92.500 97.351 95.264 93.176 L 98.028 89 83.859 89 C 70.447 89, 69.772 89.093, 71.224 90.750 C 75.534 95.665, 76 98.257, 76 117.308 L 76 135.715 69.853 136.358 C 61.950 137.184, 44.448 137.181, 34.651 136.353 L 27 135.707 27 118.321 C 27 99.855, 27.737 96.038, 32.222 91.264 L 34.349 89 19.500 89 L 4.651 89 6.701 91.250 M 104 89.567 C 104 89.878, 105.237 91.755, 106.750 93.737 L 109.500 97.340 110.052 138.420 C 110.673 184.640, 110.726 184.999, 118.202 193.492 C 131.676 208.799, 161.324 208.799, 174.798 193.492 C 182.286 184.986, 182.338 184.633, 182.953 138.500 C 183.510 96.778, 183.664 95.184, 187.445 92.045 C 188.300 91.336, 189 90.360, 189 89.878 C 189 89.395, 182.630 89, 174.845 89 C 161.446 89, 160.772 89.093, 162.224 90.750 C 166.956 96.146, 167 96.588, 167 138.482 C 167 169.650, 166.710 178.758, 165.636 181.329 C 161.565 191.073, 146.630 194.661, 134.310 188.854 C 131.161 187.370, 129.547 185.715, 127.810 182.190 C 125.547 177.595, 125.494 176.774, 125.192 141.635 C 124.860 103.060, 125.320 97.891, 129.583 92.303 L 132.102 89 118.051 89 C 110.323 89, 104 89.255, 104 89.567 M 196.406 91.250 C 201.004 97.519, 201 97.477, 201 145.500 C 201 193.600, 200.865 195.177, 196.301 200.220 C 195.409 201.206, 194.879 202.212, 195.124 202.457 C 195.368 202.702, 211.416 203.036, 230.785 203.201 L 266.001 203.500 265.933 181.500 C 265.891 167.832, 265.529 160.257, 264.979 161.500 C 264.492 162.600, 262.724 166.883, 261.050 171.018 C 255.297 185.229, 249.013 190.078, 235.500 190.733 C 226.471 191.171, 222.219 189.649, 218.571 184.676 C 216.556 181.928, 216.500 180.748, 216.500 140.676 C 216.500 102.364, 216.630 99.257, 218.371 96 C 219.399 94.075, 220.932 91.713, 221.776 90.750 C 223.228 89.093, 222.548 89, 209.033 89 L 194.756 89 196.406 91.250 M 818 99.904 C 806.216 101.240, 805 103.283, 805 121.745 L 805 134.191 823.250 133.831 C 840.380 133.493, 841.800 133.318, 846.391 130.968 C 852.431 127.877, 855 123.534, 855 116.413 C 855 105.946, 847.775 100.434, 833 99.630 C 828.325 99.376, 821.575 99.499, 818 99.904 M 919.500 99.886 C 914.127 100.627, 910.233 102.373, 908.282 104.913 C 907.450 105.996, 907.054 111.342, 907.032 121.750 L 907 137 921.451 137 C 937.493 137, 944.326 135.929, 949.190 132.651 C 954.675 128.955, 957 124.534, 957 117.802 C 957 108.899, 954.005 104.324, 946.426 101.650 C 941.585 99.942, 926.334 98.943, 919.500 99.886 M 723.687 109.218 C 720.749 109.997, 720.022 110.604, 720.518 111.864 C 721.649 114.736, 724 128.053, 724 131.588 C 724 134.938, 724.077 135, 728.250 134.985 C 735.990 134.957, 736.151 134.196, 732.320 115.750 C 730.571 107.329, 730.634 107.376, 723.687 109.218 M 459.555 109.911 C 458.746 111.220, 456.176 125.691, 455.810 131 L 455.500 135.500 460.535 135.795 L 465.570 136.090 467.314 125.053 C 468.272 118.983, 469.288 113.414, 469.570 112.679 C 469.907 111.799, 468.746 110.941, 466.175 110.171 C 461.471 108.761, 460.294 108.715, 459.555 109.911 M 628.750 135.553 C 628.337 135.982, 628 150.208, 628 167.167 L 628 198 634.318 198 C 644.028 198, 650.420 195.661, 656.545 189.869 C 663.997 182.821, 666.395 176.915, 666.440 165.500 C 666.469 157.973, 666.082 155.705, 664.077 151.642 C 659.013 141.386, 650.911 136.380, 637.778 135.395 C 633.225 135.053, 629.163 135.124, 628.750 135.553 M 806.750 148.689 C 805.182 149.099, 805 150.700, 805 164.105 C 805 181.705, 805.848 184.709, 811.627 187.578 C 814.871 189.188, 817.692 189.500, 829 189.500 C 841.513 189.500, 842.913 189.306, 848.148 186.852 C 855.789 183.270, 859.375 177.428, 859.375 168.562 C 859.375 157.616, 854.058 151.593, 842.201 149.110 C 837.138 148.050, 810.412 147.732, 806.750 148.689 M 455.744 155.589 C 454.725 156.608, 458.654 180.668, 459.972 181.483 C 460.804 181.997, 468.160 180.134, 469.216 179.141 C 469.610 178.771, 469.321 175.775, 468.575 172.484 C 467.828 169.193, 466.911 163.912, 466.537 160.750 L 465.856 155 461.095 155 C 458.476 155, 456.068 155.265, 455.744 155.589 M 724.743 155.590 C 724.334 155.999, 723.989 157.946, 723.976 159.917 C 723.963 161.887, 723.138 167.201, 722.143 171.724 L 720.333 179.947 725.380 181.427 C 728.156 182.240, 730.516 182.815, 730.624 182.703 C 731.069 182.245, 733.902 167.096, 734.542 161.750 C 735.177 156.445, 735.076 156, 733.240 156 C 732.146 156, 729.953 155.741, 728.368 155.424 C 726.783 155.107, 725.152 155.182, 724.743 155.590 M 471.791 200.392 L 467.081 202.500 470.670 209.500 C 473.518 215.055, 478.410 223.101, 480.635 225.889 C 480.806 226.104, 482.645 225.014, 484.723 223.468 C 486.800 221.922, 488.653 220.543, 488.841 220.404 C 489.029 220.265, 486.666 215.935, 483.591 210.782 C 480.516 205.629, 478 200.897, 478 200.265 C 478 198.217, 476.585 198.246, 471.791 200.392 M 710.110 205.262 C 708.246 208.693, 705.433 213.435, 703.860 215.800 C 702.287 218.165, 701 220.296, 701 220.536 C 701 220.776, 702.855 222.199, 705.123 223.700 L 709.246 226.429 711.622 223.464 C 713.821 220.719, 720.544 208.837, 722.234 204.707 C 722.826 203.259, 722.090 202.539, 718.401 200.957 C 715.889 199.881, 713.759 199.005, 713.667 199.012 C 713.575 199.018, 711.975 201.831, 710.110 205.262 M 587.183 228.829 C 580.937 234.663, 582.540 244.566, 590.348 248.379 C 593.620 249.977, 594.768 250.086, 598.024 249.111 C 603.574 247.448, 607 242.949, 607 237.323 C 607 233.512, 606.464 232.264, 603.600 229.400 C 600.641 226.441, 599.552 226, 595.206 226 C 591.104 226, 589.670 226.506, 587.183 228.829 M 497.946 239.583 L 494.500 243.165 499.500 247.638 C 505.577 253.075, 514.443 260, 515.327 260 C 516.636 260, 521.295 251.899, 520.410 251.162 C 519.909 250.746, 516.800 248.180, 513.500 245.460 C 510.200 242.740, 506.380 239.498, 505.010 238.257 C 503.641 237.016, 502.267 236, 501.956 236 C 501.646 236, 499.842 237.612, 497.946 239.583 M 684.174 239.320 C 682.404 241.146, 678.284 244.634, 675.018 247.070 C 671.752 249.507, 669.062 251.847, 669.040 252.271 C 669.018 252.696, 670.178 254.823, 671.618 256.999 L 674.236 260.955 678.743 257.727 C 681.222 255.952, 686.007 251.954, 689.375 248.843 L 695.500 243.185 692.054 239.593 C 690.158 237.617, 688.334 236, 688 236 C 687.666 236, 685.944 237.494, 684.174 239.320 M 536.736 266.007 C 535.781 268.211, 535 270.405, 535 270.884 C 535 272.385, 554.263 280, 558.059 280 C 559.118 280, 560.236 278.761, 560.902 276.851 C 562.776 271.475, 562.348 270.419, 557.750 269.067 C 555.413 268.379, 550.203 266.508, 546.174 264.908 C 542.145 263.309, 538.764 262, 538.660 262 C 538.557 262, 537.691 263.803, 536.736 266.007 M 646 264.137 C 643.525 265.235, 638.575 267.064, 635 268.202 C 631.425 269.340, 628.228 270.421, 627.897 270.604 C 627.565 270.787, 627.848 273.089, 628.525 275.718 C 629.925 281.150, 629.738 281.117, 639.981 277.789 C 648.899 274.892, 655 272.098, 655 270.913 C 655 269.907, 651.153 261.941, 650.730 262.071 C 650.603 262.109, 648.475 263.039, 646 264.137 M 581.755 278.936 C 581.526 281.446, 581.514 283.837, 581.728 284.250 C 582.127 285.018, 607.329 285.337, 608.083 284.584 C 608.313 284.355, 608.351 281.983, 608.169 279.312 L 607.838 274.456 595.005 274.414 L 582.172 274.371 581.755 278.936" stroke="none" fill="black" fill-rule="evenodd"/>
</svg>